<svg id="Capa_1" enable-background="new 0 0 512 512" height="512" viewBox="0 0 512 512" width="512" xmlns="http://www.w3.org/2000/svg"><g><path d="m330.267 497h-148.534c-2.761 0-5-2.239-5-5v-91.4c0-8.284 6.716-15 15-15h128.533c8.284 0 15 6.716 15 15v91.4c.001 2.761-2.238 5-4.999 5z" fill="#195670"/><path d="m335.267 492v-91.4c0-8.284-6.716-15-15-15h-64.267v111.4h74.267c2.761 0 5-2.239 5-5z" fill="#03304b"/><path d="m464.867 64.267h-417.734c-25.989 0-47.133 21.144-47.133 47.133v257.067c0 25.989 21.144 47.133 47.133 47.133h417.733c25.989 0 47.133-21.144 47.133-47.133v-257.067c.001-25.989-21.143-47.133-47.132-47.133z" fill="#408199"/><path d="m512 368.467v-257.067c0-25.989-21.144-47.133-47.133-47.133h-208.867v351.333h208.867c25.989 0 47.133-21.144 47.133-47.133z" fill="#195670"/><path d="m482 368.467c0 9.447-7.686 17.133-17.133 17.133h-417.734c-9.447 0-17.133-7.686-17.133-17.133v-257.067c0-9.447 7.686-17.133 17.133-17.133h417.733c9.447 0 17.133 7.686 17.133 17.133v257.067z" fill="#fff"/><path d="m482 368.467v-257.067c0-9.447-7.686-17.133-17.133-17.133h-208.867v291.333h208.867c9.447 0 17.133-7.686 17.133-17.133z" fill="#f0f7fb"/><path d="m368.467 512h-224.934c-8.284 0-15-6.716-15-15s6.716-15 15-15h224.934c8.284 0 15 6.716 15 15s-6.716 15-15 15z" fill="#408199"/><path d="m383.467 497c0-8.284-6.716-15-15-15h-112.467v30h112.467c8.284 0 15-6.716 15-15z" fill="#195670"/><g><path d="m256 158.533c-8.284 0-15-6.716-15-15v-68.2c0-8.284 6.716-15 15-15s15 6.716 15 15v68.2c0 8.284-6.716 15-15 15z" fill="#195670"/><path d="m271 143.533v-68.2c0-8.284-6.716-15-15-15v98.2c8.284 0 15-6.716 15-15z" fill="#03304b"/></g><path d="m336.333 351.333h-160.666c-43.781 0-79.267-35.421-79.267-79.267v-64.266c0-43.773 35.415-79.267 79.267-79.267h160.667c43.781 0 79.267 35.421 79.267 79.267v64.267c-.001 43.773-35.416 79.266-79.268 79.266z" fill="#f0f7fb"/><path d="m415.6 272.067v-64.267c0-43.845-35.486-79.267-79.267-79.267h-80.333v222.8h80.333c43.852 0 79.267-35.493 79.267-79.266z" fill="#cfe8f4"/><path d="m175.667 158.533c-27.208 0-49.267 22.012-49.267 49.267v64.267c0 27.206 22.012 49.267 49.267 49.267h160.667c27.208 0 49.267-22.012 49.267-49.267v-64.267c0-27.206-22.012-49.267-49.267-49.267z" fill="#46c8f4"/><path d="m385.6 272.067v-64.267c0-27.206-22.012-49.267-49.267-49.267h-80.333v162.8h80.333c27.209 0 49.267-22.011 49.267-49.266z" fill="#00aced"/><path d="m207.8 271c-8.284 0-15-6.716-15-15v-32.133c0-8.284 6.716-15 15-15s15 6.716 15 15v32.133c0 8.284-6.716 15-15 15z" fill="#195670"/><path d="m304.2 271c-8.284 0-15-6.716-15-15v-32.133c0-8.284 6.716-15 15-15s15 6.716 15 15v32.133c0 8.284-6.716 15-15 15z" fill="#03304b"/><circle cx="256" cy="47.133" fill="#ffe600" r="47.133"/><path d="m256 0c25.989 0 47.133 21.144 47.133 47.133s-21.144 47.134-47.133 47.134z" fill="#ffc600"/></g></svg>